<svg width="512" height="512" viewBox="0 0 335 281" fill="none" xmlns="http://www.w3.org/2000/svg">
  <title>SalesFlow SF Mark</title>
  <defs>
    <linearGradient id="sfCyan" x1="48" y1="24" x2="300" y2="143" gradientUnits="userSpaceOnUse">
      <stop offset="0" stop-color="#22D3EE"/>
      <stop offset="1" stop-color="#0891B2"/>
    </linearGradient>
    <linearGradient id="sfSlate" x1="38" y1="258" x2="275" y2="112" gradientUnits="userSpaceOnUse">
      <stop offset="0" stop-color="#6B7280"/>
      <stop offset="1" stop-color="#374151"/>
    </linearGradient>
  </defs>

  <path
    d="M277 111H176L155 164C150 176.5 142.5 184 131 188C118 192.5 103 188.5 90 189C67.5 190 48 207.5 39 225L22 258H66L74 234C77.5 225.5 82.5 222 87 222H132C154 221.5 174 206.5 183 187L202 143H266L277 111Z"
    fill="url(#sfSlate)"
  />
  <path
    d="M311 24H158C124 24 93.5 43 78 71C69 87 58.5 111.5 48 143H132L144 111H101C101 99.5 108 87.5 116 79C126.5 67.5 140.5 59.5 155 56H279C294 55.5 306 42.5 311 24Z"
    fill="url(#sfCyan)"
  />
</svg>
